# xmcd
#
# Track frame offsets:
#	150
#	10585
#	20925
#	29178
#	41170
#	52973
#	62265
#	71875
#	81108
#	88638
#	99383
#	111023
#	122028
#	132595
#	141585
#	151173
#	160570
#	169548
#	178115
#	187473
#	196960
#	206368
#	217925
#	229050
#	239240
#	248770
#	259265
#	268290
#	278275
#	288325
#	300848
#	311390
#
# Disc length: 4305 seconds
#
# Revision: 2
# Processed by: cddbd v1.5.2PL0 Copyright (c) Steve Scherf et al.
# Submitted via: audiograbber 1.83.01
#
DISCID=cd10cf20
DTITLE=Ricky Nelson - Six Classic Albums Plus Bonus Singles
DYEAR=1900
DGENRE=
TTITLE0=Summertime
TTITLE1=Congratulations
TTITLE2=Baby, You Don't Know
TTITLE3=I Can't Stop Loving You
TTITLE4=Excuse Me Baby
TTITLE5=History Of Love
TTITLE6=Today's Teardrops
TTITLE7=Mad Mad World
TTITLE8=Thank You Darling
TTITLE9=Poor Loser
TTITLE10=Stop Sneakin' Around
TTITLE11=There's Not A Minute
TTITLE12=A Teenager's Romance
TTITLE13=I'm Walkin'
TTITLE14=You're My One And Only Love
TTITLE15=Be Bop Baby
TTITLE16=Have I Told You Lately That I L
TTITLE17=Stood Up
TTITLE18=Waitin' In School
TTITLE19=Believe What You Say
TTITLE20=My Bucket's Got A Hole In It
TTITLE21=Poor Little Fool
TTITLE22=Don't Leave Me This Way
TTITLE23=Lonesome Town
TTITLE24=I Got A Feeling
TTITLE25=Never Be Anyone Else But You
TTITLE26=It's Late
TTITLE27=Just A Little Too Much
TTITLE28=Sweeter Than You
TTITLE29=I Wanna Be Loved
TTITLE30=Mighty Good
TTITLE31=Young Emotions
EXTD=
EXTT0=
EXTT1=
EXTT2=
EXTT3=
EXTT4=
EXTT5=
EXTT6=
EXTT7=
EXTT8=
EXTT9=
EXTT10=
EXTT11=
EXTT12=
EXTT13=
EXTT14=
EXTT15=
EXTT16=
EXTT17=
EXTT18=
EXTT19=
EXTT20=
EXTT21=
EXTT22=
EXTT23=
EXTT24=
EXTT25=
EXTT26=
EXTT27=
EXTT28=
EXTT29=
EXTT30=
EXTT31=
PLAYORDER=
